<svg width="200" height="28" viewBox="0 0 200 28" fill="none" xmlns="http://www.w3.org/2000/svg">
<path d="M43.8918 19.6048C45.0215 18.0148 45.703 16.2694 45.96 14.3626C46.0855 13.448 46.1154 12.5275 46.0317 11.6129C46.0257 11.5472 46.0198 11.4814 46.0198 11.4097C46.0138 11.3021 46.0138 11.1886 46.0018 11.081C45.2248 0.596562 33.3058 0.0585938 33.3058 0.0585938L33.3297 0.0825031C33.1563 0.0705482 32.977 0.0645712 32.8037 0.0585938C32.2298 0.0705486 31.6739 0.106414 31.1419 0.160211L31.5663 5.81485C33.2699 5.58173 34.9257 5.87463 36.5157 6.84297C36.6352 6.9147 36.7428 6.99838 36.8803 7.03425C37.2867 7.30921 37.8008 7.72165 38.3149 8.30146C38.4583 8.46883 38.5838 8.64217 38.6914 8.83345C39.1517 9.68224 39.5821 10.5669 39.7315 11.5113C39.869 12.4259 39.7793 13.3643 39.5163 14.2849C39.1338 15.6298 38.4225 16.7476 37.3286 17.6621C36.0972 18.6962 34.6806 19.276 33.0487 19.3716C30.7295 19.5091 28.7689 18.7141 27.0893 17.2078C26.9697 17.1002 26.4796 16.7236 26.354 16.622C26.3182 16.6878 26.1628 16.9209 26.0851 17.0345C25.2721 18.206 24.3098 19.2342 23.3115 20.2623C22.9708 20.6149 22.4926 20.8002 22.2236 21.2127C22.4448 21.4159 23.0425 21.8881 23.2816 22.0675C25.1526 23.4722 27.1729 24.6019 29.5101 25.1219C30.9566 25.4447 32.4151 25.5762 33.8975 25.4626C34.5909 25.4088 35.2544 25.2235 35.9418 25.1817C37.2389 25.104 38.3866 25.5045 39.4805 26.1799C40.7536 26.963 42.1165 27.5846 43.5989 27.9433C43.7663 27.9851 43.9695 28.0628 44.089 27.9014C44.2026 27.752 44.0293 27.6085 43.9456 27.483C43.4554 26.7538 43.031 25.9886 42.7023 25.1817C42.2241 23.9982 42.0089 22.7967 42.5887 21.5833C42.9294 20.854 43.4375 20.2443 43.8918 19.6048Z" fill="#00A0EE"/>
<path d="M43.7959 19.6048C44.9136 18.0148 45.5891 16.2694 45.8461 14.3626C45.9717 13.448 46.0015 12.5275 45.9179 11.6129C45.9119 11.5472 45.9059 11.4814 45.9059 11.4097C45.8999 11.3021 45.8999 11.1886 45.888 11.081C45.1169 0.596562 33.3174 0.0585938 33.3174 0.0585938L33.3414 0.0825031C33.168 0.0705482 32.9947 0.0645712 32.8213 0.0585938C32.2475 0.0705486 31.7035 0.106414 31.1775 0.160211L31.6019 5.81485C33.2876 5.58173 34.9254 5.87463 36.5034 6.84297C36.617 6.9147 36.7246 6.99838 36.8621 7.03425C37.2685 7.30921 37.7766 7.72165 38.2847 8.30146C38.4222 8.46883 38.5537 8.64217 38.6553 8.83345C39.1155 9.68224 39.5399 10.5669 39.6834 11.5113C39.8209 12.4259 39.7312 13.3643 39.4742 14.2849C39.0976 15.6298 38.3863 16.7476 37.3044 17.6621C36.085 18.6962 34.6803 19.276 33.0664 19.3716C30.7711 19.5091 28.8284 18.7141 27.1667 17.2078C27.0471 17.1002 26.563 16.7236 26.4374 16.622C26.4016 16.6878 26.2521 16.9209 26.1744 17.0345C25.3735 18.206 24.4111 19.2342 23.4248 20.2623C23.0901 20.6149 22.6179 20.8002 22.3489 21.2127C22.5641 21.4159 23.1618 21.8881 23.3949 22.0675C25.2479 23.4722 27.2444 24.6019 29.5636 25.1219C30.9982 25.4447 32.4388 25.5762 33.9092 25.4626C34.5906 25.4088 35.2541 25.2235 35.9356 25.1817C37.2207 25.104 38.3564 25.5045 39.4383 26.1799C40.6996 26.963 42.0505 27.5846 43.5149 27.9433C43.6823 27.9851 43.8855 28.0628 43.9991 27.9014C44.1067 27.752 43.9453 27.6085 43.8556 27.483C43.3655 26.7538 42.9531 25.9886 42.6243 25.1817C42.1461 23.9982 41.9429 22.7967 42.5107 21.5833C42.8395 20.854 43.3416 20.2443 43.7959 19.6048Z" fill="#00A0EE"/>
<path d="M43.7005 19.6048C44.8064 18.0148 45.4758 16.2694 45.7269 14.3626C45.8464 13.448 45.8763 12.5275 45.7926 11.6129C45.7867 11.5472 45.7807 11.4814 45.7807 11.4097C45.7747 11.3021 45.7747 11.1886 45.7627 11.081C45.0096 0.596562 33.3237 0.0585938 33.3237 0.0585938L33.3417 0.0825031C33.1683 0.0705482 33.001 0.0645712 32.8276 0.0585938C32.2598 0.0705486 31.7218 0.106414 31.2017 0.160211L31.6202 5.81485C33.2879 5.58173 34.9137 5.87463 36.4679 6.84297C36.5814 6.9147 36.689 6.99838 36.8205 7.03425C37.221 7.30921 37.7231 7.72165 38.2252 8.30146C38.3627 8.46883 38.4942 8.64217 38.5958 8.83345C39.0501 9.68224 39.4685 10.5669 39.612 11.5113C39.7495 12.4259 39.6598 13.3643 39.4028 14.2849C39.0262 15.6298 38.3268 16.7476 37.2569 17.6621C36.0494 18.6962 34.6567 19.276 33.0607 19.3716C30.7893 19.5091 28.8646 18.7141 27.2148 17.2078C27.0953 17.1002 26.6171 16.7236 26.4975 16.622C26.4617 16.6878 26.3122 16.9209 26.2345 17.0345C25.4395 18.206 24.4891 19.2342 23.5148 20.2623C23.18 20.6149 22.7138 20.8002 22.4448 21.2127C22.66 21.4159 23.2518 21.8881 23.4849 22.0675C25.32 23.4722 27.2985 24.6019 29.5938 25.1219C31.0105 25.4447 32.4391 25.5762 33.8976 25.4626C34.573 25.4088 35.2305 25.2235 35.906 25.1817C37.1792 25.104 38.3029 25.5045 39.3729 26.1799C40.6222 26.963 41.9611 27.5846 43.4136 27.9433C43.581 27.9851 43.7782 28.0628 43.8918 27.9014C43.9994 27.752 43.838 27.6085 43.7543 27.483C43.2702 26.7538 42.8577 25.9886 42.5349 25.1817C42.0627 23.9982 41.8595 22.7967 42.4214 21.5833C42.7561 20.854 43.2522 20.2443 43.7005 19.6048Z" fill="#00A0EE"/>
<path d="M43.6047 19.6048C44.6986 18.0148 45.3621 16.2694 45.6131 14.3626C45.7327 13.448 45.7626 12.5275 45.6789 11.6129C45.6729 11.5472 45.6669 11.4814 45.6669 11.4097C45.661 11.3021 45.661 11.1886 45.649 11.081C44.9018 0.596562 33.3355 0.0585938 33.3355 0.0585938L33.3535 0.0825031C33.1861 0.0705482 33.0127 0.0645712 32.8454 0.0585938C32.2835 0.0705486 31.7515 0.106414 31.2374 0.160211L31.6499 5.81485C33.2997 5.58173 34.9076 5.87463 36.4498 6.84297C36.5633 6.9147 36.6709 6.99838 36.8024 7.03425C37.1969 7.30921 37.699 7.72165 38.1952 8.30146C38.3327 8.46883 38.4582 8.64217 38.5598 8.83345C39.0081 9.68224 39.4265 10.5669 39.564 11.5113C39.7015 12.4259 39.6118 13.3643 39.3548 14.2849C38.9842 15.6298 38.2908 16.7476 37.2328 17.6621C36.0373 18.6962 34.6625 19.276 33.0785 19.3716C30.825 19.5091 28.9242 18.7141 27.2923 17.2078C27.1788 17.1002 26.7006 16.7236 26.581 16.622C26.5452 16.6878 26.3957 16.9209 26.318 17.0345C25.529 18.206 24.5906 19.2342 23.6222 20.2623C23.2935 20.6149 22.8272 20.8002 22.5642 21.2127C22.7794 21.4159 23.3592 21.8881 23.5923 22.0675C25.4095 23.4722 27.3701 24.6019 29.6415 25.1219C31.0462 25.4447 32.4568 25.5762 33.8974 25.4626C34.5669 25.4088 35.2184 25.2235 35.8819 25.1817C37.1431 25.104 38.2549 25.5045 39.3129 26.1799C40.5503 26.963 41.8773 27.5846 43.3118 27.9433C43.4732 27.9851 43.6765 28.0628 43.79 27.9014C43.8976 27.752 43.7362 27.6085 43.6526 27.483C43.1744 26.7538 42.7679 25.9886 42.4451 25.1817C41.9789 23.9982 41.7756 22.7967 42.3315 21.5833C42.6663 20.854 43.1624 20.2443 43.6047 19.6048Z" fill="#00A0EE"/>
<path d="M43.5091 19.6048C44.597 18.0148 45.2485 16.2694 45.4995 14.3626C45.6191 13.448 45.649 12.5275 45.5653 11.6129C45.5593 11.5472 45.5533 11.4814 45.5533 11.4097C45.5474 11.3021 45.5474 11.1886 45.5354 11.081C44.7942 0.596562 33.3415 0.0585938 33.3415 0.0585938L33.3594 0.0825031C33.192 0.0705482 33.0247 0.0645712 32.8573 0.0585938C32.3014 0.0705486 31.7694 0.106414 31.2613 0.160211L31.6738 5.81485C33.3116 5.58173 34.9016 5.87463 36.4258 6.84297C36.5394 6.9147 36.641 6.99838 36.7725 7.03425C37.167 7.30921 37.6572 7.72165 38.1533 8.30146C38.2908 8.46883 38.4163 8.64217 38.5119 8.83345C38.9543 9.68224 39.3727 10.5669 39.5102 11.5113C39.6476 12.4259 39.558 13.3643 39.3069 14.2849C38.9423 15.6298 38.2549 16.7476 37.2029 17.6621C36.0194 18.6962 34.6565 19.276 33.0904 19.3716C30.8608 19.5091 28.9779 18.7141 27.364 17.2078C27.2505 17.1002 26.7783 16.7236 26.6587 16.622C26.6228 16.6878 26.4794 16.9209 26.4017 17.0345C25.6186 18.206 24.6921 19.2342 23.7357 20.2623C23.407 20.6149 22.9527 20.8002 22.6897 21.2127C22.8989 21.4159 23.4787 21.8881 23.7059 22.0675C25.5051 23.4722 27.4417 24.6019 29.6952 25.1219C31.088 25.4447 32.4867 25.5762 33.9093 25.4626C34.5728 25.4088 35.2184 25.2235 35.8759 25.1817C37.1252 25.104 38.225 25.5045 39.2711 26.1799C40.4964 26.963 41.8055 27.5846 43.2281 27.9433C43.3895 27.9851 43.5868 28.0628 43.7003 27.9014C43.8079 27.752 43.6465 27.6085 43.5629 27.483C43.0906 26.7538 42.6842 25.9886 42.3674 25.1817C41.9071 23.9982 41.7039 22.7967 42.2538 21.5833C42.5826 20.854 43.0727 20.2443 43.5091 19.6048Z" fill="#00A0EE"/>
<g filter="url(#filter0_i_3878_272179)">
<path d="M43.5094 19.5462C44.5973 17.9562 45.2489 16.2108 45.4999 14.304C45.6195 13.3894 45.6494 12.4689 45.5657 11.5544C45.5597 11.4886 45.5537 11.4229 45.5537 11.3511C45.5477 11.2435 45.5477 11.13 45.5358 11.0224C44.7946 0.537967 33.3418 0 33.3418 0L33.3598 0.0239093C33.1924 0.0119545 33.025 0.00597742 32.8577 0C29.2533 0.0717291 26.5933 1.15364 25.0691 1.98451C25.0452 1.99646 25.0272 2.01439 25.0033 2.02635C24.9974 2.03232 24.9914 2.03232 24.9854 2.0383C24.0709 2.55236 23.4253 3.03653 22.8993 3.52668C22.8873 3.5207 22.8754 3.5207 22.8634 3.51472C22.8515 3.54461 22.8395 3.56852 22.8276 3.59243C22.4271 3.98694 22.1043 4.38145 21.7636 4.78792C21.1061 5.51118 20.4964 6.27032 19.8926 7.03543C19.5639 7.37614 19.2949 7.73479 19.0678 8.09343C19.0618 8.09941 19.0558 8.09941 19.0558 8.10539V8.11136C17.9141 9.9285 17.932 11.7755 17.932 11.7755C17.9081 12.0624 17.8962 12.3553 17.9022 12.6542C17.9201 13.7899 18.1951 14.8718 18.7091 15.894C18.8287 16.139 18.9123 16.151 19.1096 15.9537C20.2931 14.7403 21.5484 13.5927 22.7379 12.3852C24.1605 10.9447 25.613 9.53399 27.0596 8.11734C27.8964 7.29843 28.8169 6.58712 29.9347 6.18663C32.3077 5.67855 34.364 5.46934 36.4262 6.7784C36.5398 6.85013 36.6414 6.93381 36.7729 6.96968C37.1674 7.24464 37.6575 7.65708 38.1537 8.23689C38.2911 8.40426 38.4167 8.5776 38.5123 8.76888C38.9546 9.61767 39.3731 10.5023 39.5105 11.4468C39.648 12.3613 39.5584 13.2998 39.3073 14.2203C38.9427 15.5652 38.2553 16.683 37.2033 17.5975C36.0197 18.6316 34.6569 19.2114 33.0908 19.3071C30.8612 19.4446 28.9783 18.6496 27.3644 17.1432C27.2508 17.0357 27.0297 16.8504 26.9101 16.7487C26.8743 16.8145 26.6352 17.1552 26.5575 17.2688C25.7744 18.4404 24.573 19.056 23.76 20.1977C23.491 20.5683 23.0906 20.8612 22.8276 21.2737C23.0368 21.4769 23.4791 21.8236 23.7062 22.0029C25.5054 23.4076 27.4421 24.5373 29.6956 25.0574C31.0884 25.3801 32.4871 25.5116 33.9097 25.3981C34.5732 25.3443 35.2188 25.159 35.8763 25.1171C37.1255 25.0394 38.2254 25.4399 39.2714 26.1154C40.4968 26.8984 41.8059 27.5201 43.2285 27.8787C43.3899 27.9205 43.5871 27.9983 43.7007 27.8369C43.8083 27.6874 43.6469 27.544 43.5632 27.4184C43.091 26.6892 42.6845 25.9241 42.3677 25.1171C41.9075 23.9336 41.7043 22.7321 42.2542 21.5187C42.5829 20.7955 43.0731 20.1858 43.5094 19.5462Z" fill="#60CBFF"/>
</g>
<path d="M42.6187 27.1882C42.6187 27.1882 42.6127 27.1762 42.5948 27.1583C42.4095 26.9072 41.2379 25.2694 40.8315 23.3925C40.3832 21.3482 41.5846 20.9358 41.9552 19.9734C42.3258 19.0051 43.1806 15.9148 41.7819 12.7109C40.3832 9.50696 38.2607 8.28125 38.2607 8.28125C38.2607 8.28125 41.9493 14.0857 36.5516 18.1862C31.2497 22.209 26.2944 17.8156 26.2944 17.8156L24.8957 16.6022L23.1144 15.6278L22.5346 15.2453C22.5346 15.2453 21.6499 15.8012 22.3313 18.5867C23.0128 21.3721 22.8813 20.4038 24.7343 21.8503C26.5873 23.2969 29.7075 24.4206 31.6561 24.4744C33.6048 24.5282 35.9419 23.4822 37.771 24.3967C39.6001 25.3053 39.5941 25.64 41.1244 26.3932C42.6546 27.1404 42.6187 27.1882 42.6187 27.1882Z" fill="#00A0EE"/>
<circle cx="31.7775" cy="12.9665" r="0.72038" fill="#60CBFF"/>
<circle cx="33.3981" cy="12.9665" r="0.72038" fill="#60CBFF"/>
<circle cx="35.019" cy="12.9665" r="0.72038" fill="#60CBFF"/>
<path d="M38.1252 5.50134C38.1252 5.50134 31.8738 2.77074 29.4321 5.23861C29.4321 5.23861 28.3488 5.73787 26.6785 7.51529C25.0084 9.286 22.4245 11.8717 21.9202 12.3612C21.4095 12.8504 20.4943 13.6989 20.4943 13.6989C20.4943 13.6989 18.9718 14.9386 18.6889 12.638C18.3996 10.3372 20.0198 8.67348 21.9201 6.50275C23.8201 4.33872 26.4639 2.01561 29.5143 1.70446C32.5643 1.40001 35.8683 2.56932 38.1252 5.50134Z" fill="#18B3FF"/>
<path d="M26.3185 17.1992C26.3185 17.1992 28.4584 19.1837 30.3054 19.6798C32.1524 20.176 33.6826 19.7336 36.2828 18.4425C36.2828 18.4425 35.7747 19.7396 34.1608 20.8036C32.5529 21.8676 30.0245 22.9435 25.5952 21.6644C25.5952 21.6644 24.4774 21.24 23.3835 20.5765C23.3835 20.5645 25.8582 17.8986 26.3185 17.1992Z" fill="#18B3FF"/>
<path d="M27.2509 16.2412C27.2568 16.2352 27.2568 16.2292 27.2628 16.2233C27.2807 16.1934 27.2987 16.1635 27.3166 16.1276C28.2969 14.1969 28.5719 12.2064 27.8665 10.1383C27.7589 9.82145 27.5975 9.52258 27.4481 9.2237C27.2807 8.88897 27.2748 8.89495 27.0118 9.15198C25.8163 10.3295 24.6268 11.5071 23.4313 12.6846C22.0565 14.0355 20.6876 15.3984 19.3009 16.7373C17.7228 18.2556 15.8399 19.0924 13.5924 19.0805C12.373 19.0745 11.2373 18.7577 10.2032 18.142C8.29047 17.0063 7.1966 15.3386 6.96945 13.1748C6.71242 10.7121 7.65088 8.68574 9.67723 7.25713C12.128 5.52368 15.0569 5.60736 17.5614 7.04792C18.1652 7.39461 18.5955 7.68751 19.1335 8.11788C19.3547 7.73533 19.5938 7.5321 19.8628 7.1854C20.5023 6.37845 21.1599 5.50575 21.8054 4.76455C22.0983 4.42384 22.4091 4.07117 22.8036 3.70057C22.708 3.59895 22.7618 3.60493 22.6542 3.51527C22.0983 3.04903 21.5006 2.64256 20.8789 2.25403C18.8705 1.01073 16.6708 0.311368 14.2978 0.179865C13.0365 0.108136 11.7932 0.233661 10.5798 0.532532C10.3826 0.574374 10.1674 0.634148 9.92828 0.705877C9.8685 0.72381 9.80873 0.741743 9.75493 0.759676C3.90901 2.65452 2.07394 7.24518 2.07394 7.24518C0.746957 9.84536 0.477973 12.583 1.17135 15.4402C1.61368 17.2693 2.52823 18.8653 3.71176 20.3477C4.5486 21.3937 4.88333 22.5773 4.51273 23.9102C4.21984 24.9563 3.74165 25.9067 3.16781 26.8212C3.05424 27.0006 2.79124 27.2098 2.89883 27.3712C3.05424 27.5923 3.35311 27.413 3.57428 27.3532C5.06266 26.9408 6.4016 26.2235 7.70468 25.4285C8.73877 24.7949 9.87448 24.5259 11.0819 24.7291C12.4268 24.9563 13.7777 25.034 15.1286 24.8606C17.932 24.496 20.3649 23.3364 22.5287 21.591C22.7977 21.3758 22.983 21.053 23.3595 20.9693C23.6106 20.5689 23.9991 20.2939 24.3219 19.9532C25.2604 18.9549 26.157 17.9388 26.9161 16.8031C26.9221 16.7971 26.9281 16.7851 26.934 16.7792L27.2509 16.2412Z" fill="#7750FF"/>
<g filter="url(#filter1_i_3878_272179)">
<path d="M26.9999 16.2412C27.0058 16.2352 27.0058 16.2292 27.0118 16.2233C27.0298 16.1934 27.0477 16.1635 27.0656 16.1276C28.028 14.1969 28.297 12.2064 27.6036 10.1383C27.496 9.82145 27.3406 9.52258 27.1971 9.2237C27.0298 8.88897 27.0238 8.89495 26.7668 9.15198C25.5952 10.3295 24.4236 11.5071 23.252 12.6846C21.9071 14.0355 20.5622 15.3984 19.2053 16.7373C17.6631 18.2556 15.8101 19.0924 13.6104 19.0805C12.415 19.0745 11.3032 18.7577 10.287 18.142C8.41009 17.0063 7.34013 15.3386 7.11896 13.1748C6.86791 10.7121 7.78843 8.68574 9.77294 7.25713C12.1759 5.52368 15.045 5.60736 17.5017 7.04792C18.0935 7.39461 18.5119 7.68751 19.0439 8.11788C19.2651 7.73533 19.4922 7.5321 19.7612 7.1854C20.3888 6.37845 21.0344 5.50575 21.662 4.76455C21.9489 4.42384 22.2538 4.07117 22.6423 3.70057C22.5467 3.59895 22.6005 3.60493 22.4929 3.51527C21.9489 3.04903 21.3572 2.64256 20.7535 2.25403C18.7809 1.01073 16.629 0.311368 14.2978 0.179865C13.0605 0.108136 11.8411 0.233661 10.6516 0.532532C10.4603 0.574374 10.2452 0.634148 10.012 0.705877C9.95226 0.72381 9.89847 0.741743 9.83869 0.759676C4.10634 2.65452 2.30714 7.24518 2.30714 7.24518C1.00406 9.84536 0.741054 12.583 1.42248 15.4402C1.85883 17.2693 2.75545 18.8653 3.91507 20.3477C4.73995 21.3937 5.06273 22.5773 4.69811 23.9102C4.41119 24.9563 3.94495 25.9067 3.3771 26.8212C3.2695 27.0006 3.0065 27.2098 3.11409 27.3712C3.26353 27.5923 3.5624 27.413 3.77758 27.3532C5.23607 26.9408 6.55111 26.2235 7.83028 25.4285C8.84046 24.7949 9.95226 24.5259 11.1418 24.7291C12.4628 24.9563 13.7838 25.034 15.1108 24.8606C17.8604 24.496 20.2454 23.3364 22.3614 21.591C22.6244 21.3758 22.8097 21.053 23.1743 20.9693C23.4194 20.5689 23.8019 20.2939 24.1188 19.9532C25.0333 18.9549 25.918 17.9388 26.6592 16.8031C26.6651 16.7971 26.6711 16.7851 26.6771 16.7792L26.9999 16.2412Z" fill="#6338F6"/>
</g>
<path d="M19.1576 8.02703C19.1576 8.02703 17.1014 6.16207 15.2304 5.77354C13.3595 5.38501 11.919 5.33121 9.39648 6.77775C9.39648 6.77775 9.76708 6.03655 11.3152 4.87693C12.8574 3.72329 15.3201 2.49194 19.8151 3.51408C19.8151 3.51408 20.9508 3.87272 22.0866 4.47046C22.0866 4.47644 19.576 7.29778 19.1576 8.02703Z" fill="#7750FF"/>
<path d="M4.14213 26.6825C4.14213 26.6825 4.14811 26.6705 4.16604 26.6526C4.34537 26.4075 5.48108 24.8175 5.88156 22.9885C6.31792 21.004 5.14634 20.5975 4.7877 19.659C4.42307 18.7206 3.59819 15.708 4.96104 12.5937C6.32389 9.47948 8.29644 8.73828 8.29644 8.73828C8.29644 8.73828 4.79367 13.9327 10.0478 17.9196C15.2063 21.8348 20.0301 17.561 20.0301 17.561L24.6507 12.241L26.3781 11.2906L26.94 10.92C26.94 10.92 27.8008 11.458 27.1373 14.1718C26.4738 16.8855 23.3476 20.0834 21.5424 21.4881C19.7372 22.8988 16.7067 23.9867 14.8118 24.0405C12.917 24.0943 10.6396 23.0781 8.85832 23.9628C7.07705 24.8474 7.08303 25.1762 5.59465 25.9054C4.11225 26.6347 4.14213 26.6825 4.14213 26.6825Z" fill="#6E43FF"/>
<path d="M9.19312 18.6944C9.19312 18.6944 13.2219 21.3663 17.4659 18.6107C17.4659 18.6107 18.4761 18.1265 19.9943 16.4827C21.5126 14.8449 23.8677 12.448 24.3279 11.9937C24.7942 11.5394 25.631 10.7504 25.631 10.7504C25.631 10.7504 27.0297 9.59075 27.3884 11.629C27.753 13.6673 27.0297 15.5921 25.3082 17.5945C23.5868 19.591 20.4127 21.3722 17.5256 21.7608C14.6385 22.1493 11.4466 21.2288 9.19312 18.6944Z" fill="#7750FF"/>
<path d="M12.6873 12.9665C12.6873 13.3643 12.3648 13.6869 11.967 13.6869C11.5691 13.6869 11.2466 13.3643 11.2466 12.9665C11.2466 12.5686 11.5691 12.2461 11.967 12.2461C12.3648 12.2461 12.6873 12.5686 12.6873 12.9665Z" fill="#6338F6"/>
<path d="M14.3082 12.9665C14.3082 13.3643 13.9857 13.6869 13.5878 13.6869C13.19 13.6869 12.8674 13.3643 12.8674 12.9665C12.8674 12.5686 13.19 12.2461 13.5878 12.2461C13.9857 12.2461 14.3082 12.5686 14.3082 12.9665Z" fill="#6338F6"/>
<path d="M15.9291 12.9665C15.9291 13.3643 15.6065 13.6869 15.2087 13.6869C14.8108 13.6869 14.4883 13.3643 14.4883 12.9665C14.4883 12.5686 14.8108 12.2461 15.2087 12.2461C15.6065 12.2461 15.9291 12.5686 15.9291 12.9665Z" fill="#6338F6"/>
<circle cx="42.8037" cy="3.35695" r="2.11476" fill="#FD3A55" stroke="white" stroke-width="0.5"/>
<path d="M54.0814 21.375H59.8669C61.1818 21.375 61.8393 20.6221 61.8393 19.1162V8.35362C61.8393 6.84775 61.1818 6.09481 59.8669 6.09481H54.0814V21.375ZM51.4517 23.7667V4.36748L52.8454 3.70312H59.8669C62.935 3.70312 64.469 5.25329 64.469 8.35362V19.1162C64.469 22.2165 62.935 23.7667 59.8669 23.7667H51.4517Z" fill="#0D1119"/>
<path d="M69.0711 24.2982V13.137C69.0711 10.4796 70.386 9.15085 73.0158 9.15085H76.303V9.28372L75.2511 11.5425H73.0158C72.1392 11.5425 71.7009 12.074 71.7009 13.137V23.1023L69.2026 24.2982H69.0711Z" fill="#0D1119"/>
<path d="M82.483 23.7667C79.8532 23.7667 78.5383 22.438 78.5383 19.7806V13.137C78.5383 10.4796 79.8532 9.15085 82.483 9.15085H85.5072C88.137 9.15085 89.4519 10.4796 89.4519 13.137V13.8412L81.2075 20.2855C81.3303 21.0118 81.7554 21.375 82.483 21.375H85.5072C86.3838 21.375 86.8221 20.8435 86.8221 19.7806V19.0763L89.3204 17.8805H89.4519V19.7806C89.4519 22.438 88.137 23.7667 85.5072 23.7667H82.483ZM81.1681 17.5085L86.809 12.9111C86.7564 11.9987 86.3224 11.5425 85.5072 11.5425H82.483C81.6064 11.5425 81.1681 12.074 81.1681 13.137V17.5085Z" fill="#0D1119"/>
<path d="M96.6838 21.375H99.445C100.322 21.375 100.76 20.8435 100.76 19.7806V17.9602C100.76 16.8973 100.322 16.3658 99.445 16.3658H96.6838C95.8072 16.3658 95.3689 16.8973 95.3689 17.9602V19.7806C95.3689 20.8435 95.8072 21.375 96.6838 21.375ZM96.6838 23.7667C94.054 23.7667 92.7391 22.438 92.7391 19.7806V17.9602C92.7391 15.3028 94.054 13.9741 96.6838 13.9741H99.445C99.9008 13.9741 100.339 14.107 100.76 14.3727V13.137C100.76 12.074 100.322 11.5425 99.445 11.5425H94.7377V11.4097L95.7896 9.15085H99.445C102.075 9.15085 103.39 10.4796 103.39 13.137V23.1023L100.891 24.2982H100.76V23.3681C100.427 23.6338 99.9885 23.7667 99.445 23.7667H96.6838Z" fill="#0D1119"/>
<path d="M107.334 24.2982V13.137C107.334 10.4796 108.649 9.15085 111.279 9.15085H114.303C115.513 9.15085 116.39 9.4786 116.933 10.1341C117.512 9.4786 118.388 9.15085 119.563 9.15085H122.587C125.217 9.15085 126.532 10.4796 126.532 13.137V23.1023L124.033 24.2982H123.902V13.137C123.902 12.074 123.464 11.5425 122.587 11.5425H119.563C118.686 11.5425 118.248 12.074 118.248 13.137V23.1023L115.75 24.2982H115.618V13.137C115.618 12.074 115.18 11.5425 114.303 11.5425H111.279C110.402 11.5425 109.964 12.074 109.964 13.137V23.1023L107.466 24.2982H107.334Z" fill="#0D1119"/>
<path d="M134.027 23.7667C131.397 23.7667 130.082 22.438 130.082 19.7806V19.3022L132.58 18.1064H132.712V19.7806C132.712 20.8435 133.15 21.375 134.027 21.375H137.051C137.927 21.375 138.366 20.8435 138.366 19.7806V18.7309C138.366 17.6679 137.927 17.1364 137.051 17.1364H134.579C131.949 17.1364 130.634 15.8033 130.634 13.137C130.634 10.4796 131.949 9.15085 134.579 9.15085H136.117C138.747 9.15085 140.062 10.2227 140.062 12.3663L137.564 13.5622H137.432V13.137C137.432 12.074 136.994 11.5425 136.117 11.5425H134.579C133.702 11.5425 133.264 12.074 133.264 13.137C133.264 14.2088 133.702 14.7447 134.579 14.7447H137.051C139.681 14.7447 140.995 16.0735 140.995 18.7309V19.7806C140.995 22.438 139.681 23.7667 137.051 23.7667H134.027Z" fill="#0D1119"/>
<path d="M150.782 23.7801C147.839 23.7801 146.368 22.2689 146.368 19.2466V8.75474C146.368 5.73241 147.839 4.22124 150.782 4.22124H154.692C157.634 4.22124 159.106 5.73241 159.106 8.75474V10.1796L156.71 11.3453H156.583V8.75474C156.583 7.28675 155.953 6.55276 154.692 6.55276H150.782C149.521 6.55276 148.89 7.28675 148.89 8.75474V19.2466C148.89 20.7146 149.521 21.4486 150.782 21.4486H154.692C155.953 21.4486 156.583 20.7146 156.583 19.2466V17.8218L158.98 16.656H159.106V19.2466C159.106 22.2689 157.634 23.7801 154.692 23.7801H150.782Z" fill="#0D1119"/>
<path d="M164.151 24.2982V4.86888L166.547 3.70312H166.673V9.93346C167.043 9.66576 167.463 9.53192 167.934 9.53192H170.835C173.357 9.53192 174.618 10.8272 174.618 13.4178V23.1324L172.222 24.2982H172.096V13.4178C172.096 12.3815 171.676 11.8634 170.835 11.8634H167.934C167.093 11.8634 166.673 12.3815 166.673 13.4178V23.1324L164.277 24.2982H164.151Z" fill="#0D1119"/>
<path d="M181.555 21.4486H184.203C185.044 21.4486 185.464 20.9304 185.464 19.8942V18.1197C185.464 17.0834 185.044 16.5653 184.203 16.5653H181.555C180.714 16.5653 180.294 17.0834 180.294 18.1197V19.8942C180.294 20.9304 180.714 21.4486 181.555 21.4486ZM181.555 23.7801C179.032 23.7801 177.771 22.4848 177.771 19.8942V18.1197C177.771 15.5291 179.032 14.2338 181.555 14.2338H184.203C184.641 14.2338 185.061 14.3633 185.464 14.6224V13.4178C185.464 12.3815 185.044 11.8634 184.203 11.8634H179.688V11.7339L180.697 9.53192H184.203C186.726 9.53192 187.987 10.8272 187.987 13.4178V23.1324L185.591 24.2982H185.464V23.3915C185.145 23.6505 184.725 23.7801 184.203 23.7801H181.555Z" fill="#0D1119"/>
<path d="M193.435 24.2982V11.8893H190.194V11.7598L191.215 9.53192H193.435V4.86888L195.831 3.70312H195.958V9.53192H199.199V9.66145L198.177 11.8893H195.958V23.1324L193.561 24.2982H193.435Z" fill="#0D1119"/>
<defs>
<filter id="filter0_i_3878_272179" x="17.9006" y="0" width="27.7126" height="31.9336" filterUnits="userSpaceOnUse" color-interpolation-filters="sRGB">
<feFlood flood-opacity="0" result="BackgroundImageFix"/>
<feBlend mode="normal" in="SourceGraphic" in2="BackgroundImageFix" result="shape"/>
<feColorMatrix in="SourceAlpha" type="matrix" values="0 0 0 0 0 0 0 0 0 0 0 0 0 0 0 0 0 0 127 0" result="hardAlpha"/>
<feOffset dy="4"/>
<feGaussianBlur stdDeviation="2"/>
<feComposite in2="hardAlpha" operator="arithmetic" k2="-1" k3="1"/>
<feColorMatrix type="matrix" values="0 0 0 0 0.0185836 0 0 0 0 0.654528 0 0 0 0 0.966346 0 0 0 1 0"/>
<feBlend mode="normal" in2="shape" result="effect1_innerShadow_3878_272179"/>
</filter>
<filter id="filter1_i_3878_272179" x="1.05811" y="0.160156" width="26.9338" height="29.3203" filterUnits="userSpaceOnUse" color-interpolation-filters="sRGB">
<feFlood flood-opacity="0" result="BackgroundImageFix"/>
<feBlend mode="normal" in="SourceGraphic" in2="BackgroundImageFix" result="shape"/>
<feColorMatrix in="SourceAlpha" type="matrix" values="0 0 0 0 0 0 0 0 0 0 0 0 0 0 0 0 0 0 127 0" result="hardAlpha"/>
<feOffset dy="4"/>
<feGaussianBlur stdDeviation="1"/>
<feComposite in2="hardAlpha" operator="arithmetic" k2="-1" k3="1"/>
<feColorMatrix type="matrix" values="0 0 0 0 1 0 0 0 0 1 0 0 0 0 1 0 0 0 0.25 0"/>
<feBlend mode="normal" in2="shape" result="effect1_innerShadow_3878_272179"/>
</filter>
</defs>
</svg>
